<svg>
  <symbol xmlns="http://www.w3.org/2000/svg" viewBox="0 0 18 14" id="topmenu-mail">
    <path d="M14.9 1.8c1.2-1 .9-1.8-.7-1.8H3.7c-1.5 0-1.8.8-.6 1.8l3.7 3.1c1.2 1 3.2 1 4.4 0l3.7-3.1z"></path>
    <path d="M11.9 7.1c-1.2 1-2.2 1.8-2.2 1.8-.1.1-.2.1-.3.1h-.1c-.1.1-.2.1-.3.1-.1 0-.2 0-.3-.1h-.1c-.1 0-.2 0-.3-.1 0 0-1-.8-2.2-1.8L2.2 3.8C1 2.8 0 3.3 0 4.8v6.3C0 12.7 1.3 14 2.8 14h12.3c1.6 0 2.8-1.3 2.8-2.8V4.8c0-1.6-1-2-2.2-1l-3.8 3.3z"></path>
  </symbol>
  <symbol xmlns="http://www.w3.org/2000/svg" viewBox="0 0 18 18" id="topmenu-phone">
    <path d="M12.6 18h-.8c-3.6-.4-6.2-2.1-8.1-4.3C1.8 11.6.3 8.8 0 5V4c.1-.7.4-1.1.8-1.5C1.2 2 2 1.4 2.6 1.3c.5 0 1.3.3 1.6.8.3.4.4 1.2.6 1.8.1.6.4 1.4.4 2-.2.9-1.3 1.3-1.7 1.9 1.1 2.8 3 4.8 5.4 6.2.6-.3 1.2-1.4 2-1.4.3 0 .7.2 1 .3.3.1.6.2 1 .4.5.2 1.4.5 1.7.9.3.4.5 1.2.4 1.7-.1.8-1.6 1.8-2.4 2.1z"></path>
    <path d="M9.1 1.1c4.3 0 7.8 3.6 7.8 8H18c0-5-4-9.1-8.9-9.1v1.1zm0 5.8V8c.6 0 1 .5 1 1.1h1.1c0-1.2-.9-2.2-2.1-2.2z"></path>
    <path d="M9.1 4.6c2.4 0 4.4 2 4.4 4.5h1.2c0-3.1-2.5-5.7-5.5-5.7v1.2h-.1z"></path>
  </symbol>
  <symbol xmlns="http://www.w3.org/2000/svg" viewBox="0 0 20 20" id="user">
    <ellipse cx="10" cy="6" rx="5" ry="6"></ellipse>
    <path d="M19.8 17.1c-.9-1.8-2.6-3.3-4.8-4.2-.6-.2-1.3-.2-1.8.1-1 .6-2 .9-3.2.9s-2.2-.3-3.2-.9c-.5-.2-1.2-.3-1.8 0-2.2.9-3.9 2.4-4.8 4.2-.7 1.3.4 2.8 1.9 2.8h15.8c1.5 0 2.6-1.5 1.9-2.9z"></path>
  </symbol>
    <symbol xmlns="http://www.w3.org/2000/svg" viewBox="0 0 10 14" id="triangle-arrow-left">
    <path d="M0 7.1l10-7V14z"></path>
  </symbol>
  <symbol xmlns="http://www.w3.org/2000/svg" viewBox="0 0 10 14" id="triangle-arrow-right">
    <path d="M0 14V.1l10 7z"></path>
  </symbol>
  <symbol xmlns="http://www.w3.org/2000/svg" viewBox="0 0 36 26" id="contacts-mail">
    <path d="M0 23c0 1.6 1.3 3 3 3h30c1.7 0 3-1.3 3-3V3c0-1.6-1.3-3-3-3H3C1.3 0 0 1.3 0 3v20zm11-10L4.2 6.2c-.6-.6-.6-1.5 0-2 .6-.6 1.5-.6 2.1 0l11 10.9c.4.4 1.2.4 1.6 0l11-10.9c.6-.6 1.5-.6 2.1 0 .6.6.6 1.5 0 2L25 13l6.9 6.8c.6.6.6 1.5 0 2-.6.6-1.5.6-2.1 0L22.9 15s-2.1 2.2-2.5 2.5c-.6.6-1.4 1-2.4 1-.9 0-1.8-.4-2.4-1L13.1 15l-6.9 6.8c-.6.6-1.5.6-2.1 0-.6-.6-.6-1.5 0-2L11 13z"
      fill="currentColor"></path>
  </symbol>
  <symbol xmlns="http://www.w3.org/2000/svg" viewBox="0 0 36 36" id="contacts-phone">
    <path d="M18 0C11.6 0 5.2 1.1 2.8 3.4.9 5.3.2 8.7 0 10.8v.3c0 .8.7 1.5 1.5 1.5.1 0 3.7-.3 5.9-.5h.2c.8 0 1.5-.7 1.5-1.5v-3C9 6.7 9.7 6 10.7 6h14.7c.8 0 1.6.7 1.6 1.7v3c0 .8.7 1.5 1.5 1.5h.2c2.2.2 5.8.5 5.9.5.8 0 1.5-.7 1.5-1.5v-.3c-.2-2.1-.9-5.5-2.8-7.4C30.8 1.1 24.4 0 18 0zm0 19.5c-1.7 0-3 1.3-3 3s1.3 3 3 3 3-1.3 3-3-1.3-3-3-3zm-2.3-6.8v-1.9c0-1-.8-1.9-1.9-1.9s-1.8.9-1.8 2v1.9L1.9 23.6c-.7.7-1.1 1.6-1.1 2.7v3c0 1.7 1.3 3 3 3h.8v1.9c0 1 .8 1.9 1.9 1.9s1.9-.8 1.9-1.9v-1.9h19.5v1.9c0 1 .8 1.9 1.9 1.9 1 0 1.9-.8 1.9-1.9v-1.9h.8c1.7 0 3-1.3 3-3v-3c0-1.1-.4-2-1.1-2.7L24 12.7v-1.9c0-1-.8-1.9-1.9-1.9s-1.9.8-1.9 1.9v1.9h-4.5zm2.3 3.8c3.3 0 6 2.7 6 6s-2.7 6-6 6-6-2.7-6-6 2.7-6 6-6z"
      fill="currentColor"></path>
  </symbol>
  <symbol xmlns="http://www.w3.org/2000/svg" viewBox="0 0 20 17" id="heart">
    <path d="M18.5 1.5c-2-2-5.3-2-7.3 0L10 2.7 8.8 1.5c-2-2-5.3-2-7.3 0s-2 5.2 0 7.2l1.2 1.2L10 17l7.3-7.2 1.2-1.2c2-1.9 2-5.1 0-7.1zm-3.6 8.3L10 14.6 5.1 9.8 2.7 7.5C1.4 6.1 1.4 4 2.7 2.7c1.3-1.3 3.5-1.3 4.9 0L10 5.1l2.4-2.4c1.3-1.3 3.5-1.3 4.9 0 1.3 1.3 1.3 3.5 0 4.8l-2.4 2.3z"></path>
  </symbol>
  <symbol xmlns="http://www.w3.org/2000/svg" viewBox="0 0 13 11" id="heart-active">
    <path d="M12 1a3.32 3.32 0 0 0-4.7 0l-.8.7-.8-.7A3.32 3.32 0 0 0 1 1C-.3 2.3-.3 4.4 1 5.6l.8.8L6.5 11l4.7-4.6.8-.8c1.3-1.3 1.3-3.4 0-4.6z"></path>
  </symbol>
</svg>
