<svg>
  <symbol viewBox="0 0 17 21" id="business">
    <path d="M16.4 15.1c-.9-1.2-2-2-3.6-2.4l-1.5 5.2c0 .5-.4.9-.9.9s-.9-.4-.9-.9v-4.2c0-.6-.5-1.1-1.1-1.1-.6 0-1.1.5-1.1 1.1v4.2c0 .5-.4.9-.9.9s-.9-.4-.9-.9L4 12.7c-1.6.4-2.7 1.2-3.6 2.4-.2.5-.4 1.5-.4 2v2.2c0 1 .8 1.7 1.7 1.7h13.5c1 0 1.7-.8 1.7-1.7v-2.2c.1-.5-.1-1.5-.5-2zM3.9 4.6c0 2.6 1.6 6.3 4.6 6.3 2.9 0 4.6-3.8 4.6-6.3 0-2.6-2-4.6-4.6-4.6C6 0 3.9 2.1 3.9 4.6z"
      fill="#010101"></path>
  </symbol>
  <symbol viewBox="0 0 18.6 18.6" id="close">
    <path d="M11.4 9.3l6.7-6.7c.6-.6.6-1.5 0-2.1s-1.5-.6-2.1 0L9.3 7.2 2.6.4C2-.1 1-.1.4.4-.1 1-.1 2 .4 2.6l6.7 6.7L.4 16c-.6.6-.6 1.5 0 2.1s1.5.6 2.1 0l6.7-6.7 6.7 6.7c.6.6 1.5.6 2.1 0s.6-1.5 0-2.1l-6.6-6.7z"></path>
  </symbol>
  <symbol viewBox="0 0 28 43" id="contacts-location">
    <path d="M11.7 13.9c0-1.2 1-2.2 2.3-2.2s2.3 1 2.3 2.2c0 1.2-1 2.2-2.3 2.2-1.2 0-2.3-1-2.3-2.2zM14 8.1c-3.2 0-5.9 2.6-5.9 5.8s2.6 5.8 5.9 5.8c3.2 0 5.9-2.6 5.9-5.8 0-3.2-2.7-5.8-5.9-5.8zM0 13.6c0 9.1 10.9 16.2 11.7 26.7v.4c0 1.2 1 2.2 2.3 2.2s2.3-1 2.3-2.2v-.4C17.2 29.8 28 22.8 28 13.6 28 6.1 21.7 0 14 0S0 6.1 0 13.6zm14-9.1c5.2 0 9.5 4.2 9.5 9.4s-4.2 9.4-9.5 9.4-9.5-4.2-9.5-9.4S8.8 4.5 14 4.5z"
      fill="#010101"></path>
  </symbol>
  <symbol viewBox="0 0 36 26" id="contacts-mail">
    <path d="M0 23c0 1.6 1.3 3 3 3h30c1.7 0 3-1.3 3-3V3c0-1.6-1.3-3-3-3H3C1.3 0 0 1.3 0 3v20zm11-10L4.2 6.2c-.6-.6-.6-1.5 0-2 .6-.6 1.5-.6 2.1 0l11 10.9c.4.4 1.2.4 1.6 0l11-10.9c.6-.6 1.5-.6 2.1 0 .6.6.6 1.5 0 2L25 13l6.9 6.8c.6.6.6 1.5 0 2-.6.6-1.5.6-2.1 0L22.9 15s-2.1 2.2-2.5 2.5c-.6.6-1.4 1-2.4 1-.9 0-1.8-.4-2.4-1L13.1 15l-6.9 6.8c-.6.6-1.5.6-2.1 0-.6-.6-.6-1.5 0-2L11 13z"
      fill="#010101"></path>
  </symbol>
  <symbol viewBox="0 0 36 36" id="contacts-phone">
    <path d="M18 0C11.6 0 5.2 1.1 2.8 3.4.9 5.3.2 8.7 0 10.8v.3c0 .8.7 1.5 1.5 1.5.1 0 3.7-.3 5.9-.5h.2c.8 0 1.5-.7 1.5-1.5v-3C9 6.7 9.7 6 10.7 6h14.7c.8 0 1.6.7 1.6 1.7v3c0 .8.7 1.5 1.5 1.5h.2c2.2.2 5.8.5 5.9.5.8 0 1.5-.7 1.5-1.5v-.3c-.2-2.1-.9-5.5-2.8-7.4C30.8 1.1 24.4 0 18 0zm0 19.5c-1.7 0-3 1.3-3 3s1.3 3 3 3 3-1.3 3-3-1.3-3-3-3zm-2.3-6.8v-1.9c0-1-.8-1.9-1.9-1.9s-1.8.9-1.8 2v1.9L1.9 23.6c-.7.7-1.1 1.6-1.1 2.7v3c0 1.7 1.3 3 3 3h.8v1.9c0 1 .8 1.9 1.9 1.9s1.9-.8 1.9-1.9v-1.9h19.5v1.9c0 1 .8 1.9 1.9 1.9 1 0 1.9-.8 1.9-1.9v-1.9h.8c1.7 0 3-1.3 3-3v-3c0-1.1-.4-2-1.1-2.7L24 12.7v-1.9c0-1-.8-1.9-1.9-1.9s-1.9.8-1.9 1.9v1.9h-4.5zm2.3 3.8c3.3 0 6 2.7 6 6s-2.7 6-6 6-6-2.7-6-6 2.7-6 6-6z"
      fill="#010101"></path>
  </symbol>
  <symbol viewBox="0 0 27 5" id="dots">
    <circle cx="2.5" cy="2.5" r="2.5"></circle>
    <circle cx="13.5" cy="2.5" r="2.5"></circle>
    <circle cx="24.5" cy="2.5" r="2.5"></circle>
  </symbol>
  <symbol  viewBox="0 0 17 9" id="dropdown-form">
    <path d="M8.5 7.2L1.3.2C1-.1.5-.1.2.2c-.3.3-.3.8 0 1L8 8.8c.3.3.8.3 1.1 0l7.7-7.5c.1-.2.2-.4.2-.6s-.1-.4-.2-.5c-.3-.3-.8-.3-1.1 0l-7.2 7z"></path>
  </symbol>
  <symbol viewBox="0 0 10 5" id="dropdown">
    <path d="M5 5L0 0h10z"></path>
  </symbol>
  <symbol viewBox="0 0 15 10" id="filter-close">
    <path d="M4 0h2v2H4zM0 0h3v2H0zm7 0h8v2H7zM4 8h2v2H4zM0 8h3v2H0zm7 0h8v2H7zm2-4h2v2H9zm3 0h3v2h-3zM0 4h8v2H0z"></path>
  </symbol>
  <symbol viewBox="0 0 12 12" id="filter">
    <path d="M6.9 6l4.9-4.9c.2-.2.2-.6 0-.9s-.6-.2-.9 0L6 5.1 1.1.2C.9 0 .5 0 .2.2s-.2.6 0 .9L5.1 6 .2 10.9c-.2.2-.2.6 0 .9.2.2.6.2.9 0L6 6.9l4.9 4.9c.2.2.6.2.9 0 .2-.2.2-.6 0-.9L6.9 6z" fill="#606161"></path>
  </symbol>
  <symbol viewBox="0 0 13 11" id="heart-active">
    <path d="M12 1a3.32 3.32 0 0 0-4.7 0l-.8.7-.8-.7A3.32 3.32 0 0 0 1 1C-.3 2.3-.3 4.4 1 5.6l.8.8L6.5 11l4.7-4.6.8-.8c1.3-1.3 1.3-3.4 0-4.6z"></path>
  </symbol>
  <symbol viewBox="0 0 18 18" id="heart">
    <path d="M10.3 9l7.4-7.4c.4-.4.4-.9 0-1.3s-.9-.4-1.3 0L9 7.7 1.6.3C1.2-.1.7-.1.3.3s-.4.9 0 1.3L7.7 9 .3 16.4c-.4.4-.4.9 0 1.3s.9.4 1.3 0L9 10.3l7.4 7.4c.4.4.9.4 1.3 0s.4-.9 0-1.3L10.3 9z" fill="#606161"></path>
  </symbol>
  <symbol viewBox="0 0 18 34" id="map-marker">
    <path d="M3.6 17l14-14.4c.6-.6.6-1.6 0-2.1-.6-.6-1.5-.6-2.1 0L.4 15.9c-.6.6-.6 1.6 0 2.1l15.1 15.5c.3.3.7.4 1 .4s.8-.1 1-.4c.6-.6.6-1.6 0-2.1L3.6 17z"></path>
  </symbol>
  <symbol viewBox="0 0 25 11" id="menu-close">
    <path d="M1.5 3h22c.8 0 1.5-.7 1.5-1.5S24.3 0 23.5 0h-22C.7 0 0 .7 0 1.5S.7 3 1.5 3zm22 5h-22C.7 8 0 8.7 0 9.5S.7 11 1.5 11h22c.8 0 1.5-.7 1.5-1.5S24.3 8 23.5 8z"></path>
  </symbol>
  <symbol viewBox="-9 -9 54 54" id="menu">
    <circle cx="18" cy="18" r="27" fill="#fff"></circle>
    <circle cx="18" cy="18" r="11.8" fill="#192144"></circle>
  </symbol>
  <symbol viewBox="0 0 20 17" id="month-arrow-left">
    <path d="M18.5 1.5c-2-2-5.3-2-7.3 0L10 2.7 8.8 1.5c-2-2-5.3-2-7.3 0s-2 5.2 0 7.2l1.2 1.2L10 17l7.3-7.2 1.2-1.2c2-1.9 2-5.1 0-7.1zm-3.6 8.3L10 14.6 5.1 9.8 2.7 7.5C1.4 6.1 1.4 4 2.7 2.7c1.3-1.3 3.5-1.3 4.9 0L10 5.1l2.4-2.4c1.3-1.3 3.5-1.3 4.9 0 1.3 1.3 1.3 3.5 0 4.8l-2.4 2.3z"></path>
  </symbol>
  <symbol viewBox="0 0 18 34" id="month-arrow-right">
    <path d="M14.4 17L.4 2.6C-.1 2-.1 1 .4.4 1-.2 1.9-.2 2.5.4l15.1 15.5c.6.6.6 1.6 0 2.1L2.5 33.6c-.3.3-.7.4-1 .4s-.8-.1-1-.4c-.6-.6-.6-1.6 0-2.1L14.4 17z"></path>
  </symbol>
  <symbol viewBox="0 0 20 2" id="qty-minus-mobile">
    <path d="M0 0h20v2H0z"></path>
    <path d="M0 0h20v2H0z"></path>
  </symbol>
  <symbol viewBox="0 0 20 20" id="qty-minus">
    <path fill="#606161" d="M20 9h-9V0H9v9H0v2h9v9h2v-9h9z"></path>
  </symbol>
  <symbol viewBox="0 0 14 2" id="qty-plus-mobile">
    <path fill="#606161" d="M0 0h14v2H0z"></path>
  </symbol>
  <symbol viewBox="0 0 14 14" id="qty-plus">
    <path fill="#606161" d="M8 6V0H6v6H0v2h6v6h2V8h6V6z"></path>
  </symbol>
  <symbol viewBox="0 0 32 16.1" id="return">
    <path d="M27.6 2.1H10V0L0 3l10 2.9V4.1h17.6c.4 0 2.4 0 2.4 2v6.1c0 .5-.1.9-.4 1.2-.6.6-1.6.7-2 .7H4v2h23.7c.4 0 2.1-.1 3.2-1.2.7-.7 1.1-1.6 1.1-2.7V6.1c0-2-2.6-4-4.4-4z" fill="#010101"></path>
  </symbol>
  <symbol viewBox="0 0 5 10" id="show-more-plus">
    <path fill="#606161" d="M3 8.1V0H2v8.1l-2-2v1.4L2.5 10 5 7.5V6.1z"></path>
  </symbol>
  <symbol viewBox="0 0 27 27" id="small-arrow">
    <path d="M25.5 12H15V1.5c0-.8-.7-1.5-1.5-1.5S12 .7 12 1.5V12H1.5c-.8 0-1.5.7-1.5 1.5S.7 15 1.5 15H12v10.5c0 .8.7 1.5 1.5 1.5s1.5-.7 1.5-1.5V15h10.5c.8 0 1.5-.7 1.5-1.5s-.7-1.5-1.5-1.5z"></path>
  </symbol>
  <symbol viewBox="0 0 9 9" id="small-cross">
    <path d="M5.2 4.5L8.9.8c.1-.2.1-.5 0-.7s-.5-.1-.7 0L4.5 3.8.8.1C.6 0 .3 0 .1.1S0 .6.1.8l3.7 3.7L.1 8.2c-.1.2-.1.5 0 .7.1.1.3.1.4.1s.2 0 .3-.1l3.7-3.7 3.7 3.7c.1.1.2.1.3.1s.2 0 .3-.1c.2-.2.2-.5.1-.7L5.2 4.5z"></path>
  </symbol>
  <symbol viewBox="0 0 12 12" id="tick">
    <path d="M12 0L3.8 8 0 4.3v4L3.8 12 12 4z"></path>
  </symbol>
  <symbol viewBox="0 0 18 18" id="topmenu-mail">
    <path d="M12.6 18h-.8c-3.6-.4-6.2-2.1-8.1-4.3C1.8 11.6.3 8.8 0 5V4c.1-.7.4-1.1.8-1.5C1.2 2 2 1.4 2.6 1.3c.5 0 1.3.3 1.6.8.3.4.4 1.2.6 1.8.1.6.4 1.4.4 2-.2.9-1.3 1.3-1.7 1.9 1.1 2.8 3 4.8 5.4 6.2.6-.3 1.2-1.4 2-1.4.3 0 .7.2 1 .3.3.1.6.2 1 .4.5.2 1.4.5 1.7.9.3.4.5 1.2.4 1.7-.1.8-1.6 1.8-2.4 2.1z"></path>
    <path d="M9.1 1.1c4.3 0 7.8 3.6 7.8 8H18c0-5-4-9.1-8.9-9.1v1.1zm0 5.8V8c.6 0 1 .5 1 1.1h1.1c0-1.2-.9-2.2-2.1-2.2z"></path>
    <path d="M9.1 4.6c2.4 0 4.4 2 4.4 4.5h1.2c0-3.1-2.5-5.7-5.5-5.7v1.2h-.1z"></path>
  </symbol>
  <symbol viewBox="0 0 10 14" id="topmenu-phone">
    <path d="M0 7.1l10-7V14z"></path>
  </symbol>
  <symbol viewBox="0 0 18 14" id="triangle-arrow-left">
    <path d="M14.9 1.8c1.2-1 .9-1.8-.7-1.8H3.7c-1.5 0-1.8.8-.6 1.8l3.7 3.1c1.2 1 3.2 1 4.4 0l3.7-3.1z"></path>
    <path d="M11.9 7.1c-1.2 1-2.2 1.8-2.2 1.8-.1.1-.2.1-.3.1h-.1c-.1.1-.2.1-.3.1-.1 0-.2 0-.3-.1h-.1c-.1 0-.2 0-.3-.1 0 0-1-.8-2.2-1.8L2.2 3.8C1 2.8 0 3.3 0 4.8v6.3C0 12.7 1.3 14 2.8 14h12.3c1.6 0 2.8-1.3 2.8-2.8V4.8c0-1.6-1-2-2.2-1l-3.8 3.3z"></path>
  </symbol>
  <symbol viewBox="0 0 20 20" id="triangle-arrow-right">
    <ellipse cx="10" cy="6" rx="5" ry="6"></ellipse>
    <path d="M19.8 17.1c-.9-1.8-2.6-3.3-4.8-4.2-.6-.2-1.3-.2-1.8.1-1 .6-2 .9-3.2.9s-2.2-.3-3.2-.9c-.5-.2-1.2-.3-1.8 0-2.2.9-3.9 2.4-4.8 4.2-.7 1.3.4 2.8 1.9 2.8h15.8c1.5 0 2.6-1.5 1.9-2.9z"></path>
  </symbol>
</svg>